<svg width="100" height="100" viewBox="0 0 100 100" fill="none" xmlns="http://www.w3.org/2000/svg">
<g clip-path="url(#clip0_13_237)">
<rect x="33.333" y="22.2222" width="11.1111" height="11.1111" fill="#FFDD04"/>
<rect x="44.4443" y="22.2222" width="11.1111" height="11.1111" fill="#FFDD04"/>
<rect x="55.5557" y="22.2222" width="11.1111" height="11.1111" fill="#FFDD04"/>
<rect x="55.5557" y="33.3334" width="11.1111" height="11.1111" fill="#FFDD04"/>
<rect x="66.667" y="33.3334" width="11.1111" height="11.1111" fill="#FFD000"/>
<rect x="66.667" y="44.4444" width="11.1111" height="11.1111" fill="#FFAA01"/>
<rect x="66.667" y="55.5556" width="11.1111" height="11.1111" fill="#FFD000"/>
<rect x="55.5557" y="66.6666" width="11.1111" height="11.1111" fill="#FFAA01"/>
<rect x="44.4443" y="66.6666" width="11.1111" height="11.1111" fill="#FFD000"/>
<rect x="44.4443" y="66.6666" width="11.1111" height="11.1111" fill="#FFAA01"/>
<rect x="33.333" y="66.6666" width="11.1111" height="11.1111" fill="#FFAA01"/>
<rect x="33.333" y="55.5556" width="11.1111" height="11.1111" fill="#FFD000"/>
<rect x="22.2227" y="55.5556" width="11.1111" height="11.1111" fill="#FFD000"/>
<rect x="22.2227" y="44.4444" width="11.1111" height="11.1111" fill="#FFDD04"/>
<rect x="22.2227" y="33.3334" width="11.1111" height="11.1111" fill="#FFDD04"/>
<rect x="33.333" y="44.4444" width="11.1111" height="11.1111" fill="#FFDD04"/>
<rect x="33.333" y="33.3334" width="11.1111" height="11.1111" fill="#FFDD04"/>
<rect x="44.4443" y="33.3334" width="11.1111" height="11.1111" fill="#FFDD04"/>
<rect x="44.4443" y="44.4444" width="11.1111" height="11.1111" fill="#FFDD04"/>
<rect x="55.5557" y="44.4444" width="11.1111" height="11.1111" fill="#FFD000"/>
<rect x="44.4443" y="55.5556" width="11.1111" height="11.1111" fill="#FFD000"/>
<rect x="66.667" y="55.5556" width="11.1111" height="11.1111" fill="#FFAA01"/>
<rect x="66.667" y="66.6666" width="11.1111" height="11.1111" fill="#FFAA01"/>
<rect x="55.5557" y="77.7778" width="11.1111" height="11.1111" fill="#FF9500"/>
<rect x="55.5557" y="88.8888" width="11.1111" height="11.1111" fill="#FF9500"/>
<rect x="44.4443" y="77.7778" width="11.1111" height="11.1111" fill="#FFAA01"/>
<rect x="44.4443" y="88.8888" width="11.1111" height="11.1111" fill="#FF9500"/>
<rect x="33.333" y="77.7778" width="11.1111" height="11.1111" fill="#FFAA01"/>
<rect x="33.333" y="88.8888" width="11.1111" height="11.1111" fill="#FF9500"/>
<rect x="22.2227" y="66.6666" width="11.1111" height="11.1111" fill="#FFAA01"/>
<rect x="11.1113" y="55.5556" width="11.1111" height="11.1111" fill="#FFAA01"/>
<rect x="11.1113" y="44.4444" width="11.1111" height="11.1111" fill="#FFDD04"/>
<rect x="11.1113" y="33.3334" width="11.1111" height="11.1111" fill="#FFDD04"/>
<rect x="11.1113" y="22.2222" width="11.1111" height="11.1111" fill="#FFDD04"/>
<rect x="22.2227" y="22.2222" width="11.1111" height="11.1111" fill="#FFDD04"/>
<rect x="22.2227" y="11.1113" width="11.1111" height="11.1111" fill="#FFDD04"/>
<rect x="22.2227" width="11.1111" height="11.1111" fill="#FFDD04"/>
<rect x="33.333" width="11.1111" height="11.1111" fill="#FFDD04"/>
<rect x="44.4443" width="11.1111" height="11.1111" fill="#FFDD04"/>
<rect x="55.5557" width="11.1111" height="11.1111" fill="#FFD000"/>
<rect x="66.667" y="11.1113" width="11.1111" height="11.1111" fill="#FFD000"/>
<rect x="66.667" width="11.1111" height="11.1111" fill="#FFD000"/>
<rect x="33.333" y="11.1113" width="11.1111" height="11.1111" fill="#FFDD04"/>
<rect x="44.4443" y="11.1113" width="11.1111" height="11.1111" fill="#FFDD04"/>
<rect x="55.5557" y="11.1113" width="11.1111" height="11.1111" fill="#FFDD04"/>
<rect x="66.667" y="22.2222" width="11.1111" height="11.1111" fill="#FFD000"/>
<rect x="77.7773" y="33.3334" width="11.1111" height="11.1111" fill="#FFAA01"/>
<rect x="77.7773" y="22.2222" width="11.1111" height="11.1111" fill="#FFAA01"/>
<rect x="88.8887" y="22.2222" width="11.1111" height="11.1111" fill="#FFAA01"/>
<rect x="77.7773" y="11.1113" width="11.1111" height="11.1111" fill="#FFAA01"/>
<rect x="11.1113" y="11.1113" width="11.1111" height="11.1111" fill="#FFDD04"/>
<rect x="11.1113" y="77.7778" width="11.1111" height="11.1111" fill="#FFAA01"/>
<rect y="22.2222" width="11.1111" height="11.1111" fill="#FFDD04"/>
<rect x="88.8887" y="33.3334" width="11.1111" height="11.1111" fill="#FFAA01"/>
<rect y="33.3334" width="11.1111" height="11.1111" fill="#FFDD04"/>
<rect x="88.8887" y="44.4444" width="11.1111" height="11.1111" fill="#FF9500"/>
<rect y="44.4444" width="11.1111" height="11.1111" fill="#FFD000"/>
<rect x="88.8887" y="55.5556" width="11.1111" height="11.1111" fill="#FF9500"/>
<rect y="55.5556" width="11.1111" height="11.1111" fill="#FFAA01"/>
<rect x="77.7773" y="44.4444" width="11.1111" height="11.1111" fill="#FFAA01"/>
<rect x="77.7773" y="55.5556" width="11.1111" height="11.1111" fill="#FFAA01"/>
<rect x="77.7773" y="66.6666" width="11.1111" height="11.1111" fill="#FF9500"/>
<rect x="88.8887" y="66.6666" width="11.1111" height="11.1111" fill="#FF9500"/>
<rect y="66.6666" width="11.1111" height="11.1111" fill="#FFAA01"/>
<rect x="66.667" y="77.7778" width="11.1111" height="11.1111" fill="#FFD000"/>
<rect x="66.667" y="77.7778" width="11.1111" height="11.1111" fill="#FF9500"/>
<rect x="66.667" y="88.8888" width="11.1111" height="11.1111" fill="#FF9500"/>
<rect x="77.7773" y="77.7778" width="11.1111" height="11.1111" fill="#FF9500"/>
<rect x="22.2227" y="77.7778" width="11.1111" height="11.1111" fill="#FFAA01"/>
<rect x="22.2227" y="88.8888" width="11.1111" height="11.1111" fill="#FF9500"/>
<rect x="11.1113" y="66.6666" width="11.1111" height="11.1111" fill="#FFAA01"/>
<rect x="55.5557" y="55.5556" width="11.1111" height="11.1111" fill="#FFAA01"/>
</g>
<defs>
<clipPath id="clip0_13_237">
<rect width="100" height="100" fill="white"/>
</clipPath>
</defs>
</svg>
