<svg width="100" height="100" viewBox="0 0 100 100" fill="none" xmlns="http://www.w3.org/2000/svg">
<g clip-path="url(#clip0_13_2)">
<path d="M45.1983 4V5.6875V6.53125H40.1357V8.21875H35.917V10.75H33.3857V20.0312H30.0107V22.5625H28.3232V26.7812H25.792V29.3125H24.1045V31.8438H19.042V34.375H17.3545V38.5938H14.8232V46.1875H12.292V52.5875H9.76074V66.4375H8.07324V71.5H5.54199V73.1875H3.01074V75.7188H0.479492V82.4688H7.55919V85H40.1358V80.7812H46.8858V78.25H51.1045V75.7188H54.4795V73.1875H57.8545V70.6562H63.7608V68.9688H68.8233V66.4375H74.7295V63.9062H77.2608V62.2188H84.8545V59.6875H89.0733V55.4688H91.6045V52.0938H93.292V47.875H94.9795V46.1875H98.3545V42.8125H100.042V24.25H98.3545V20.0312H95.8233V18.3438H94.1358V16.6562H90.7608V12.4375H70.5108V10.75H67.9795V8.21875H65.4483V5.6875H60.3858V4H45.1983Z" fill="#6A994E"/>
<rect x="42.667" y="47.8751" width="6.75" height="25.3125" fill="#F2E8CF"/>
<rect x="46.042" y="51.2499" width="5.0625" height="21.9375" fill="#F2E8CF"/>
<rect x="51.1045" y="54.625" width="5.0625" height="11.8125" fill="#F2E8CF"/>
<rect x="49.417" y="61.3749" width="5.0625" height="10.125" fill="#F2E8CF"/>
<rect x="51.1045" y="54.625" width="20.25" height="10.125" fill="#F2E8CF"/>
<rect x="59.542" y="63.0626" width="6.75" height="3.375" fill="#F2E8CF"/>
<rect x="59.542" y="52.9376" width="11.8125" height="1.6875" fill="#F2E8CF"/>
<rect x="61.2295" y="49.5625" width="10.125" height="5.0625" fill="#F2E8CF"/>
<rect x="62.917" y="47.8751" width="6.75" height="1.6875" fill="#F2E8CF"/>
<rect x="64.6045" y="41.1249" width="3.375" height="6.75" fill="#F2E8CF"/>
<rect x="66.292" y="42.8126" width="25.3125" height="5.0625" fill="#F2E8CF"/>
<rect x="67.9795" y="46.1874" width="13.5" height="8.4375" fill="#F2E8CF"/>
<rect x="78.1045" y="44.5" width="8.4375" height="5.0625" fill="#F2E8CF"/>
<rect x="76.417" y="47.8751" width="6.75" height="5.0625" fill="#F2E8CF"/>
<rect x="67.9795" y="54.625" width="6.75" height="3.375" fill="#F2E8CF"/>
<rect x="74.7295" y="39.4375" width="18.5625" height="5.0625" fill="#F2E8CF"/>
<rect x="78.1045" y="20.8749" width="10.125" height="18.5625" fill="#F2E8CF"/>
<rect x="86.542" y="22.5626" width="5.0625" height="18.5625" fill="#F2E8CF"/>
<rect x="89.917" y="27.6251" width="3.375" height="3.375" fill="#F2E8CF"/>
<rect x="89.917" y="34.375" width="3.375" height="6.75" fill="#F2E8CF"/>
<rect x="89.917" y="36.0624" width="5.0625" height="5.0625" fill="#F2E8CF"/>
<rect x="37.6045" y="52.9376" width="8.4375" height="10.125" fill="#F2E8CF"/>
<rect x="35.917" y="58.0001" width="8.4375" height="15.1875" fill="#F2E8CF"/>
<rect x="37.6045" y="69.8125" width="6.75" height="8.4375" fill="#F2E8CF"/>
<rect x="42.667" y="71.4999" width="5.0625" height="3.375" fill="#F2E8CF"/>
<rect x="37.6045" y="78.2501" width="1.6875" height="1.6875" fill="#F2E8CF"/>
<rect x="34.2295" y="59.6875" width="5.0625" height="5.0625" fill="#F2E8CF"/>
<rect x="30.8545" y="64.75" width="5.0625" height="8.4375" fill="#F2E8CF"/>
<rect x="29.167" y="68.1251" width="6.75" height="10.125" fill="#F2E8CF"/>
<rect x="20.7295" y="73.1876" width="10.125" height="6.75" fill="#F2E8CF"/>
<rect x="10.6045" y="76.5624" width="11.8125" height="3.375" fill="#F2E8CF"/>
<rect x="12.292" y="78.2501" width="8.4375" height="3.375" fill="#F2E8CF"/>
<rect x="22.417" y="54.625" width="1.6875" height="18.5625" fill="#F2E8CF"/>
<rect x="19.042" y="47.8751" width="3.375" height="18.5625" fill="#F2E8CF"/>
<rect x="17.3545" y="49.5625" width="1.6875" height="11.8125" fill="#F2E8CF"/>
<rect x="24.1045" y="42.8126" width="1.6875" height="20.25" fill="#F2E8CF"/>
<rect x="22.417" y="42.8126" width="1.6875" height="11.8125" fill="#F2E8CF"/>
<rect x="25.792" y="47.8751" width="3.375" height="11.8125" fill="#F2E8CF"/>
<rect x="29.167" y="46.1874" width="3.375" height="8.4375" fill="#F2E8CF"/>
<rect x="30.8545" y="42.8126" width="6.75" height="6.75" fill="#F2E8CF"/>
<rect x="34.2295" y="30.9999" width="10.125" height="13.5" fill="#F2E8CF"/>
<rect x="35.917" y="39.4375" width="3.375" height="8.4375" fill="#F2E8CF"/>
<rect x="24.1045" y="39.4375" width="3.375" height="3.375" fill="#F2E8CF"/>
<rect x="25.792" y="36.0624" width="8.4375" height="3.375" fill="#F2E8CF"/>
<rect x="30.8545" y="27.6251" width="5.0625" height="8.4375" fill="#F2E8CF"/>
<rect x="29.167" y="29.3125" width="3.375" height="5.0625" fill="#F2E8CF"/>
<rect x="35.917" y="22.5626" width="8.4375" height="8.4375" fill="#F2E8CF"/>
<rect x="34.2295" y="25.9374" width="1.6875" height="1.6875" fill="#F2E8CF"/>
<rect x="42.667" y="29.3125" width="3.375" height="11.8125" fill="#F2E8CF"/>
<rect x="44.3545" y="32.6876" width="3.375" height="5.0625" fill="#F2E8CF"/>
<rect x="46.042" y="34.375" width="5.0625" height="3.375" fill="#F2E8CF"/>
<rect x="40.9795" y="10.7499" width="6.75" height="13.5" fill="#F2E8CF"/>
<rect x="37.6045" y="10.7499" width="5.0625" height="8.4375" fill="#F2E8CF"/>
<rect x="35.917" y="12.4376" width="3.375" height="5.0625" fill="#F2E8CF"/>
<rect x="46.042" y="9.0625" width="10.125" height="1.6875" fill="#F2E8CF"/>
<rect x="46.042" y="10.7499" width="15.1875" height="6.75" fill="#F2E8CF"/>
<rect x="46.042" y="15.8124" width="5.0625" height="5.0625" fill="#F2E8CF"/>
<rect x="51.1045" y="17.5001" width="3.375" height="1.6875" fill="#F2E8CF"/>
<rect x="59.542" y="14.125" width="3.375" height="1.6875" fill="#F2E8CF"/>
</g>
<defs>
<clipPath id="clip0_13_2">
<rect width="100" height="100" fill="white"/>
</clipPath>
</defs>
</svg>
