<svg width="100" height="100" viewBox="0 0 100 100" fill="none" xmlns="http://www.w3.org/2000/svg">
<g clip-path="url(#clip0_13_376)">
<rect x="28.4004" y="21.5998" width="7.2" height="7.2" fill="#00B4D8"/>
<rect x="28.4004" y="28.7999" width="7.2" height="7.2" fill="#00B4D8"/>
<rect x="21.2002" y="36" width="7.2" height="7.2" fill="#49CAE4"/>
<rect x="21.2002" y="43.1998" width="7.2" height="7.2" fill="#49CAE4"/>
<rect x="14" y="50.4" width="7.2" height="7.2" fill="#49CAE4"/>
<rect x="21.2002" y="50.4" width="7.2" height="7.2" fill="#0277B6"/>
<rect x="28.4004" y="50.4" width="7.2" height="7.2" fill="#90E0EF"/>
<rect x="28.4004" y="43.1998" width="7.2" height="7.2" fill="#90E0EF"/>
<rect x="28.4004" y="36" width="7.2" height="7.2" fill="#49CAE4"/>
<rect x="35.5996" y="50.4" width="7.2" height="7.2" fill="#C9F0F8"/>
<rect x="35.5996" y="43.1998" width="7.2" height="7.2" fill="#90E0EF"/>
<rect x="35.5996" y="36" width="7.2" height="7.2" fill="#90E0EF"/>
<rect x="35.5996" y="28.7999" width="7.2" height="7.2" fill="#49CAE4"/>
<rect x="35.5996" y="21.5998" width="7.2" height="7.2" fill="#00B4D8"/>
<rect x="35.5996" y="57.5998" width="7.2" height="7.2" fill="#C9F0F8"/>
<rect x="35.5996" y="64.7999" width="7.2" height="7.2" fill="#ADE8F4"/>
<rect x="35.5996" y="72" width="7.2" height="7.2" fill="#ADE8F4"/>
<rect x="35.5996" y="79.1999" width="7.2" height="7.2" fill="#ADE8F4"/>
<rect x="35.5996" y="86.4" width="7.2" height="7.2" fill="#90E0EF"/>
<rect x="42.7998" y="50.4" width="7.2" height="7.2" fill="#0277B6"/>
<rect x="42.7998" y="43.1998" width="7.2" height="7.2" fill="#C9F0F8"/>
<rect x="42.7998" y="36" width="7.2" height="7.2" fill="#90E0EF"/>
<rect x="42.7998" y="28.7999" width="7.2" height="7.2" fill="#90E0EF"/>
<rect x="42.7998" y="21.5998" width="7.2" height="7.2" fill="#90E0EF"/>
<rect x="42.7998" y="14.4" width="7.2" height="7.2" fill="#90E0EF"/>
<rect x="42.7998" y="7.19983" width="7.2" height="7.2" fill="#00B4D8"/>
<rect x="50" y="7.19983" width="7.2" height="7.2" fill="#00B4D8"/>
<rect x="50" y="14.4" width="7.2" height="7.2" fill="#90E0EF"/>
<rect x="50" y="21.5998" width="7.2" height="7.2" fill="#90E0EF"/>
<rect x="50" y="28.7999" width="7.2" height="7.2" fill="#90E0EF"/>
<rect x="50" y="36" width="7.2" height="7.2" fill="#90E0EF"/>
<rect x="50" y="43.1998" width="7.2" height="7.2" fill="#C9F0F8"/>
<rect x="50" y="50.4" width="7.2" height="7.2" fill="#0277B6"/>
<rect x="50" y="57.5998" width="7.2" height="7.2" fill="#C9F0F8"/>
<rect x="50" y="64.7999" width="7.2" height="7.2" fill="#C9F0F8"/>
<rect x="50" y="72" width="7.2" height="7.2" fill="#C9F0F8"/>
<rect x="50" y="79.1999" width="7.2" height="7.2" fill="#C9F0F8"/>
<rect x="50" y="86.4" width="7.2" height="7.2" fill="#ADE8F4"/>
<rect x="50" y="93.5999" width="7.2" height="7.2" fill="#90E0EF"/>
<rect x="50" y="50.4" width="7.2" height="7.2" fill="#C9F0F8"/>
<rect x="57.2002" y="50.4" width="7.2" height="7.2" fill="#C9F0F8"/>
<rect x="57.2002" y="57.5998" width="7.2" height="7.2" fill="#C9F0F8"/>
<rect x="57.2002" y="64.7999" width="7.2" height="7.2" fill="#ADE8F4"/>
<rect x="57.2002" y="72" width="7.2" height="7.2" fill="#ADE8F4"/>
<rect x="57.2002" y="79.1999" width="7.2" height="7.2" fill="#ADE8F4"/>
<rect x="57.2002" y="86.4" width="7.2" height="7.2" fill="#90E0EF"/>
<rect x="64.4004" y="50.4" width="7.2" height="7.2" fill="#90E0EF"/>
<rect x="64.4004" y="57.5998" width="7.2" height="7.2" fill="#90E0EF"/>
<rect x="64.4004" y="64.7999" width="7.2" height="7.2" fill="#90E0EF"/>
<rect x="64.4004" y="72" width="7.2" height="7.2" fill="#90E0EF"/>
<rect x="64.4004" y="79.1999" width="7.2" height="7.2" fill="#90E0EF"/>
<rect x="71.5996" y="50.4" width="7.2" height="7.2" fill="#49CAE4"/>
<rect x="71.5996" y="57.5998" width="7.2" height="7.2" fill="#90E0EF"/>
<rect x="71.5996" y="64.7999" width="7.2" height="7.2" fill="#90E0EF"/>
<rect x="71.5996" y="72" width="7.2" height="7.2" fill="#49CAE4"/>
<rect x="14" y="57.5998" width="7.2" height="7.2" fill="#49CAE4"/>
<rect x="14" y="64.7999" width="7.2" height="7.2" fill="#49CAE4"/>
<rect x="14" y="72" width="7.2" height="7.2" fill="#49CAE4"/>
<rect x="21.2002" y="79.1999" width="7.2" height="7.2" fill="#49CAE4"/>
<rect x="21.2002" y="72" width="7.2" height="7.2" fill="#49CAE4"/>
<rect x="21.2002" y="64.7999" width="7.2" height="7.2" fill="#90E0EF"/>
<rect x="21.2002" y="57.5998" width="7.2" height="7.2" fill="#90E0EF"/>
<rect x="21.2002" y="50.4" width="7.2" height="7.2" fill="#49CAE4"/>
<rect x="28.4004" y="86.4" width="7.2" height="7.2" fill="#90E0EF"/>
<rect x="28.4004" y="79.1999" width="7.2" height="7.2" fill="#90E0EF"/>
<rect x="28.4004" y="72" width="7.2" height="7.2" fill="#90E0EF"/>
<rect x="28.4004" y="64.7999" width="7.2" height="7.2" fill="#90E0EF"/>
<rect x="28.4004" y="57.5998" width="7.2" height="7.2" fill="#90E0EF"/>
<rect x="35.5996" y="93.5999" width="7.2" height="7.2" fill="#90E0EF"/>
<rect x="42.7998" y="93.5999" width="7.2" height="7.2" fill="#90E0EF"/>
<rect x="42.7998" y="86.4" width="7.2" height="7.2" fill="#ADE8F4"/>
<rect x="42.7998" y="79.1999" width="7.2" height="7.2" fill="#C9F0F8"/>
<rect x="42.7998" y="72" width="7.2" height="7.2" fill="#C9F0F8"/>
<rect x="42.7998" y="64.7999" width="7.2" height="7.2" fill="#C9F0F8"/>
<rect x="42.7998" y="57.5998" width="7.2" height="7.2" fill="#C9F0F8"/>
<rect x="42.7998" y="50.4" width="7.2" height="7.2" fill="#C9F0F8"/>
<rect x="57.2002" y="93.5999" width="7.2" height="7.2" fill="#90E0EF"/>
<rect x="64.4004" y="86.4" width="7.2" height="7.2" fill="#90E0EF"/>
<rect x="71.5996" y="79.1999" width="7.2" height="7.2" fill="#49CAE4"/>
<rect x="78.7998" y="72" width="7.2" height="7.2" fill="#49CAE4"/>
<rect x="78.7998" y="64.7999" width="7.2" height="7.2" fill="#49CAE4"/>
<rect x="78.7998" y="57.5998" width="7.2" height="7.2" fill="#49CAE4"/>
<rect x="78.7998" y="50.4" width="7.2" height="7.2" fill="#49CAE4"/>
<rect x="71.5996" y="43.1998" width="7.2" height="7.2" fill="#49CAE4"/>
<rect x="71.5996" y="36" width="7.2" height="7.2" fill="#49CAE4"/>
<rect x="64.4004" y="28.7999" width="7.2" height="7.2" fill="#00B4D8"/>
<rect x="64.4004" y="36" width="7.2" height="7.2" fill="#49CAE4"/>
<rect x="64.4004" y="43.1998" width="7.2" height="7.2" fill="#90E0EF"/>
<rect x="64.4004" y="21.5998" width="7.2" height="7.2" fill="#00B4D8"/>
<rect x="57.2002" y="14.4" width="7.2" height="7.2" fill="#00B4D8"/>
<rect x="57.2002" y="21.5998" width="7.2" height="7.2" fill="#00B4D8"/>
<rect x="57.2002" y="28.7999" width="7.2" height="7.2" fill="#49CAE4"/>
<rect x="57.2002" y="36" width="7.2" height="7.2" fill="#90E0EF"/>
<rect x="57.2002" y="43.1998" width="7.2" height="7.2" fill="#90E0EF"/>
<rect x="57.2002" y="7.19983" width="7.2" height="7.2" fill="#00B4D8"/>
<rect x="35.5996" y="14.4" width="7.2" height="7.2" fill="#00B4D8"/>
<rect x="35.5996" y="7.19983" width="7.2" height="7.2" fill="#00B4D8"/>
<rect x="42.7998" width="7.2" height="7.2" fill="#00B4D8"/>
<rect x="50" width="7.2" height="7.2" fill="#00B4D8"/>
</g>
<defs>
<clipPath id="clip0_13_376">
<rect width="100" height="100" fill="white"/>
</clipPath>
</defs>
</svg>
